<?xml version="1.0" encoding="UTF-8" standalone="no"?>
<svg
   xmlns:dc="http://purl.org/dc/elements/1.1/"
   xmlns:cc="http://creativecommons.org/ns#"
   xmlns:rdf="http://www.w3.org/1999/02/22-rdf-syntax-ns#"
   xmlns:svg="http://www.w3.org/2000/svg"
   xmlns="http://www.w3.org/2000/svg"
   xmlns:sodipodi="http://sodipodi.sourceforge.net/DTD/sodipodi-0.dtd"
   xmlns:inkscape="http://www.inkscape.org/namespaces/inkscape"
   version="1.1"
   id="Calque_1"
   x="0px"
   y="0px"
   viewBox="0 0 29.86922 30.10939"
   xml:space="preserve"
   sodipodi:docname="logo-nft-dark-beta.1c4ff610.svg"
   width="29.869219"
   height="30.10939"
   inkscape:version="1.0.2 (e86c870879, 2021-01-15)"><metadata
   id="metadata123"><rdf:RDF><cc:Work
       rdf:about=""><dc:format>image/svg+xml</dc:format><dc:type
         rdf:resource="http://purl.org/dc/dcmitype/StillImage" /><dc:title></dc:title></cc:Work></rdf:RDF></metadata><defs
   id="defs121" /><sodipodi:namedview
   pagecolor="#ffffff"
   bordercolor="#666666"
   borderopacity="1"
   objecttolerance="10"
   gridtolerance="10"
   guidetolerance="10"
   inkscape:pageopacity="0"
   inkscape:pageshadow="2"
   inkscape:window-width="1916"
   inkscape:window-height="1041"
   id="namedview119"
   showgrid="false"
   fit-margin-top="0"
   fit-margin-left="0"
   fit-margin-right="0"
   fit-margin-bottom="0"
   inkscape:zoom="6.5899125"
   inkscape:cx="61.988683"
   inkscape:cy="27.149156"
   inkscape:window-x="1920"
   inkscape:window-y="18"
   inkscape:window-maximized="0"
   inkscape:current-layer="g114" />
<style
   type="text/css"
   id="style62">
	.st0{fill:#61C2E1;}
	.st1{fill:#FFFFFF;}
	.st2{fill:#C7C6C6;}
	.st3{opacity:0.2;fill:#FFFFFF;}
	.st4{opacity:0.6;fill:#FFFFFF;}
</style>
<g
   id="g76"
   transform="translate(0,0.00938952)">
	
	<g
   id="g74">
		
		
		
		
	</g>
</g>
<g
   id="g116"
   style="fill:#aa0000"
   transform="translate(0,0.00938952)">
	<g
   id="g88"
   style="fill:#aa0000">
		
		<g
   id="g86"
   style="fill:#aa0000">
			
			
			
		</g>
	</g>
	<g
   id="g114"
   style="fill:#aa0000">
		<g
   id="g100"
   style="fill:#aa0000">
			
			
			
			
			
		</g>
		<g
   id="g112"
   style="fill:none">
			<g
   id="g108"
   style="fill:none">
				<path
   class="st3"
   d="M 28.8,21.5 22.3,15 v 0 0 l -7.4,7.4 v 0 l 6.4,6.4 c 1.6,1.6 5,1.5 7,-0.5 2,-2 2,-5.2 0.5,-6.8 z"
   id="path102"
   style="fill:none" />
				<path
   class="st3"
   d="m 22.3,15 6.4,-6.4 c 1.6,-1.6 1.5,-5 -0.5,-7 -2,-2 -5.4,-2.1 -7,-0.5 l -6.4,6.4 v 0 z"
   id="path104"
   style="fill:none" />
				<path
   class="st1"
   d="M 14,21.6 7.4,15 14.9,7.5 v 0 0 0 L 10.2,2.8 C 10.2,2.8 7.7,0 5.3,0 2.5,0.1 0,2.4 0,4.6 v 20.9 c 0,2.2 2.5,4.6 5.3,4.6 2.4,0 4.9,-2.8 4.9,-2.8 l 4.7,-4.7 v 0 z"
   id="path106"
   style="fill:none" />
			</g>
			<polygon
   class="st4"
   points="22.3,15 14.9,7.6 14.9,7.6 14.9,7.6 7.4,15 14,21.6 14.9,22.5 14.9,22.5 14.9,22.5 14.9,22.5 21.4,16 22.3,15 "
   id="polygon110"
   style="fill:none" />
		</g>
	</g>
</g>
</svg>
